<svg xmlns="http://www.w3.org/2000/svg" viewBox="0 0 24 30" x="0px" y="0px"><title>notifications</title><path d="M16.9,11l-.18-1A5.79,5.79,0,0,0,14.3,6.16a5.37,5.37,0,0,0-1.86-.81,2.59,2.59,0,0,0-1-1.5,2.4,2.4,0,0,0-1.84-.38,2.62,2.62,0,0,0-2,3.06.5.5,0,0,0,.06.16,6,6,0,0,0-1.78,5.43l.18,1c-.31.55-1.19,2.21-1,3.3a2.57,2.57,0,0,0,1.06,1.67,2.35,2.35,0,0,0,1.33.42,2.33,2.33,0,0,0,.39,0,2.8,2.8,0,0,0,2.68,2.09,2.87,2.87,0,0,0,2.79-2.93c0-.08,0-.16,0-.23L17,16.67a2.55,2.55,0,0,0,1.94-3A5.94,5.94,0,0,0,16.9,11ZM9.75,4.45a1.42,1.42,0,0,1,1.08.23,1.57,1.57,0,0,1,.48.54A5.27,5.27,0,0,0,8.52,6,1.59,1.59,0,0,1,9.75,4.45Zm2.53,13.21a1.87,1.87,0,0,1-1.79,1.93A1.8,1.8,0,0,1,8.81,18.3l3.47-.69S12.28,17.64,12.28,17.65Zm4.54-2-4.1.81a.49.49,0,0,0-.16,0l-.07,0-4.32.86h0l-.05,0-.42.08a1.35,1.35,0,0,1-1-.22,1.54,1.54,0,0,1-.64-1,5.75,5.75,0,0,1,1-2.78A.5.5,0,0,0,7,13.15l-.21-1.21A4.82,4.82,0,0,1,10.45,6.3,4.29,4.29,0,0,1,13.73,7a4.81,4.81,0,0,1,2,3.17L16,11.36a.5.5,0,0,0,.19.31A5.42,5.42,0,0,1,18,13.88,1.55,1.55,0,0,1,16.82,15.69Z"/><text x="0" y="39" fill="#000000" font-size="5px" font-weight="bold" font-family="'Helvetica Neue', Helvetica, Arial-Unicode, Arial, Sans-serif">Created by Henning Gross</text><text x="0" y="44" fill="#000000" font-size="5px" font-weight="bold" font-family="'Helvetica Neue', Helvetica, Arial-Unicode, Arial, Sans-serif">from the Noun Project</text></svg>